<?xml version="1.0" standalone="no"?>
<!DOCTYPE svg PUBLIC "-//W3C//DTD SVG 20010904//EN"
 "http://www.w3.org/TR/2001/REC-SVG-20010904/DTD/svg10.dtd">
<svg version="1.0" xmlns="http://www.w3.org/2000/svg"
 width="256.000000pt" height="271.000000pt" viewBox="0 0 256.000000 271.000000"
 preserveAspectRatio="xMidYMid meet">
<metadata>
Created by potrace 1.10, written by Peter Selinger 2001-2011
</metadata>
<g transform="translate(0.000000,271.000000) scale(0.100000,-0.100000)"
fill="#ffffff" stroke="none">
<path d="M1073 2650 c-24 -10 -67 -23 -95 -29 -74 -14 -198 -58 -220 -78 -17
-15 -166 -311 -182 -360 -7 -23 12 -71 38 -92 8 -7 17 -25 21 -40 3 -16 17
-39 31 -51 27 -26 30 -41 13 -69 -14 -22 18 -129 80 -268 23 -50 41 -96 41
-102 0 -6 5 -11 10 -11 6 0 9 23 8 55 -1 30 3 60 9 66 15 15 85 23 130 14 l38
-7 -43 -17 c-42 -15 -84 -62 -70 -77 4 -3 23 3 42 15 29 18 38 20 60 10 19 -9
32 -9 55 1 43 18 57 36 40 56 -10 13 -10 17 2 25 12 8 12 10 -1 19 -53 35
-187 41 -239 9 -26 -16 -36 -18 -42 -8 -12 20 -22 149 -18 238 4 72 7 84 32
108 l28 28 162 0 162 0 45 31 c61 42 102 54 174 53 99 -2 119 -9 139 -51 18
-37 41 -237 30 -265 -3 -7 -17 -13 -32 -13 -44 0 -155 -35 -205 -64 -74 -43
-80 -59 -73 -184 4 -59 10 -117 13 -129 8 -30 -53 -93 -89 -93 -31 0 -45 -18
-20 -26 10 -3 36 -14 59 -25 23 -10 63 -19 89 -19 40 0 51 5 76 31 16 17 29
42 29 56 0 13 -18 54 -40 91 -23 37 -44 78 -47 91 -9 36 9 94 30 97 10 1 27
10 36 18 22 20 35 20 51 1 7 -8 25 -15 41 -15 15 0 31 -5 35 -11 7 -11 71 -8
137 7 24 6 27 3 27 -19 0 -13 -15 -58 -33 -98 -19 -41 -42 -99 -52 -129 -10
-30 -29 -71 -42 -90 -12 -19 -23 -45 -23 -58 0 -21 3 -23 30 -17 25 5 30 3 30
-12 0 -29 -43 -96 -71 -112 -14 -8 -33 -11 -42 -8 -15 6 -15 12 8 63 14 31 25
67 25 80 0 27 -21 32 -41 8 -7 -8 -24 -21 -38 -29 -35 -17 -204 -62 -269 -70
-32 -4 -50 -11 -46 -17 5 -7 49 -9 126 -6 102 4 117 3 106 -9 -8 -7 -36 -22
-63 -32 -84 -32 -71 -45 38 -38 92 5 96 4 118 -19 18 -20 21 -29 13 -42 -19
-30 -91 -63 -154 -70 -33 -4 -62 -11 -63 -17 -3 -13 110 -68 185 -92 64 -20
79 -47 32 -59 -33 -9 -95 19 -162 74 -30 24 -56 41 -60 38 -11 -11 102 -117
150 -142 60 -30 88 -30 180 1 40 14 81 25 91 25 23 0 22 -25 -4 -60 -27 -36
-19 -60 19 -60 20 0 55 21 122 75 52 41 97 75 101 75 3 0 12 -7 20 -16 12 -14
14 -14 26 2 17 24 17 8 -2 -85 -9 -40 -13 -76 -11 -79 17 -17 74 78 96 158 20
75 86 200 156 294 36 48 68 86 70 83 3 -3 -2 -32 -10 -65 -38 -146 -67 -372
-48 -372 16 0 29 22 47 80 9 30 30 88 46 127 28 70 29 79 29 233 0 128 -3 162
-14 166 -8 3 -64 -7 -124 -21 l-111 -26 -28 20 c-15 12 -57 27 -93 34 -62 12
-65 14 -68 43 -2 24 6 42 37 80 48 57 68 113 77 209 6 64 4 73 -20 108 -26 37
-26 41 -26 212 l0 175 -42 77 c-61 108 -129 180 -205 215 -50 22 -64 34 -69
56 -12 56 -16 62 -35 62 -10 0 -19 -4 -19 -10 0 -21 -16 -9 -34 25 -11 19 -26
35 -35 35 -9 0 -27 7 -40 16 -14 11 -59 19 -124 25 -157 13 -207 11 -254 -11z"/>
<path d="M873 1106 c-131 -75 -276 -250 -417 -502 -31 -55 -56 -106 -56 -112
0 -6 15 -12 33 -14 l32 -3 -47 -28 c-79 -47 -78 -53 9 -61 42 -3 260 -6 484
-6 315 0 410 3 416 13 10 16 6 134 -6 202 -12 64 -64 200 -91 235 l-19 25 -41
-34 c-50 -40 -90 -43 -168 -12 -83 33 -113 29 -174 -25 -29 -26 -55 -48 -57
-50 -2 -2 3 -12 12 -22 16 -18 15 -19 -23 -32 -22 -7 -43 -10 -46 -7 -9 9 137
187 199 243 56 51 101 74 143 74 31 0 31 1 -31 77 -58 72 -83 78 -152 39z"/>
<path d="M1469 705 c-32 -17 -36 -26 -59 -138 -10 -48 -30 -107 -44 -131 -22
-38 -23 -45 -10 -50 9 -3 78 -6 154 -6 116 0 139 2 144 16 3 9 6 55 6 103 l0
87 -68 67 c-37 37 -74 67 -82 67 -8 -1 -27 -7 -41 -15z"/>
<path d="M2087 611 c-36 -66 -77 -176 -77 -206 0 -21 5 -25 29 -25 75 0 88 8
105 69 16 57 21 165 10 195 -12 31 -40 17 -67 -33z"/>
<path d="M1912 538 c-25 -40 -47 -122 -38 -143 6 -16 61 -21 70 -7 2 4 8 47
12 95 6 75 5 87 -9 87 -8 0 -24 -15 -35 -32z"/>
</g>
</svg>
